<?xml version="1.0" encoding="UTF-8" standalone="no"?>
<!DOCTYPE svg PUBLIC "-//W3C//DTD SVG 1.1//EN" "http://www.w3.org/Graphics/SVG/1.1/DTD/svg11.dtd">
<svg xmlns="http://www.w3.org/2000/svg" version="1.1" viewBox="0.00 0.00 1280.00 412.00">
<rect fill="#f8b500" x="62.02" y="44.99" width="79.22" height="79.14" rx="1.44"/>
<rect fill="#f8b500" x="181.20" y="45.00" width="78.80" height="79.18" rx="1.05"/>
<rect fill="#f8b500" x="299.75" y="44.99" width="79.00" height="79.24" rx="1.27"/>
<path fill="#000000" d="
  M 1082.30 89.02
  C 1087.24 69.70 1109.99 66.46 1126.45 67.62
  Q 1127.67 67.71 1127.67 68.93
  L 1127.69 87.10
  A 1.50 1.50 0.0 0 1 1126.07 88.59
  C 1107.89 87.11 1105.67 98.68 1107.02 114.01
  Q 1107.06 114.44 1107.48 114.44
  L 1126.70 114.64
  A 1.06 1.06 0.0 0 1 1127.75 115.70
  L 1127.75 133.59
  A 1.66 1.66 0.0 0 1 1126.09 135.25
  L 1107.98 135.25
  A 1.27 1.26 -0.2 0 0 1106.71 136.52
  L 1106.85 209.83
  A 1.43 1.43 0.0 0 1 1105.42 211.26
  L 1081.82 211.23
  A 1.66 1.66 0.0 0 1 1080.16 209.57
  L 1080.19 136.50
  A 1.25 1.25 0.0 0 0 1078.94 135.25
  L 1062.50 135.25
  A 1.00 1.00 0.0 0 1 1061.50 134.25
  L 1061.50 115.54
  A 0.97 0.96 -0.3 0 1 1062.46 114.58
  L 1079.16 114.52
  A 0.83 0.82 0.7 0 0 1079.98 113.73
  C 1080.32 105.28 1080.22 97.16 1082.30 89.02
  Z"
/>
<circle fill="#000000" cx="1031.97" cy="84.80" r="15.28"/>
<path fill="#000000" d="
  M 503.13 100.40
  Q 502.25 100.79 502.25 101.50
  L 502.25 209.59
  A 1.58 1.57 -89.6 0 1 500.66 211.17
  L 475.22 210.94
  A 0.73 0.72 0.4 0 1 474.50 210.22
  L 474.50 101.78
  A 1.28 1.28 0.0 0 0 473.22 100.50
  L 443.53 100.50
  A 1.46 1.46 0.0 0 1 442.07 99.03
  L 442.27 76.73
  A 1.00 1.00 0.0 0 1 443.27 75.74
  L 532.26 75.77
  Q 534.25 75.78 534.25 77.76
  L 534.25 98.98
  A 1.54 1.54 0.0 0 1 532.69 100.52
  Q 518.38 100.37 504.50 100.25
  Q 503.51 100.24 503.13 100.40
  Z"
/>
<path fill="#000000" d="
  M 546.48 147.25
  C 554.40 117.12 588.79 107.51 615.32 115.55
  C 643.69 124.15 654.77 150.46 647.67 178.18
  C 639.71 209.21 603.91 218.78 576.40 209.54
  C 549.51 200.51 539.63 173.27 546.48 147.25
  Z
  M 583.88 137.23
  C 567.66 146.88 566.70 173.73 580.21 185.62
  C 590.85 194.99 609.26 192.97 617.58 181.44
  C 626.12 169.61 624.87 147.94 612.70 139.06
  C 604.70 133.22 592.60 132.04 583.88 137.23
  Z"
/>
<path fill="#000000" d="
  M 922.68 167.76
  L 854.76 167.69
  Q 852.56 167.69 852.90 169.87
  C 855.35 185.41 866.02 192.62 881.17 191.39
  C 889.81 190.68 893.73 185.97 898.32 179.19
  Q 898.64 178.73 899.20 178.81
  L 921.63 182.21
  A 1.11 1.11 0.0 0 1 922.50 183.70
  C 914.89 203.93 896.22 213.80 875.23 212.94
  C 863.30 212.46 851.45 209.04 842.30 201.43
  C 823.77 186.03 821.89 153.55 834.18 134.05
  Q 844.14 118.26 864.02 114.04
  C 899.49 106.51 928.38 128.69 924.19 166.40
  Q 924.04 167.76 922.68 167.76
  Z
  M 854.44 150.74
  L 897.50 150.29
  A 0.20 0.20 0.0 0 0 897.69 150.09
  L 897.69 150.00
  A 20.68 18.47 -0.6 0 0 876.82 131.75
  L 874.72 131.77
  A 20.68 18.47 -0.6 0 0 854.24 150.46
  L 854.24 150.55
  A 0.20 0.20 0.0 0 0 854.44 150.74
  Z"
/>
<path fill="#000000" d="
  M 971.88 128.54
  Q 983.27 114.91 1001.19 113.59
  A 1.28 1.28 0.0 0 1 1002.56 114.92
  Q 1002.18 124.62 1002.57 134.76
  Q 1002.70 138.09 999.27 137.71
  Q 995.83 137.33 988.86 138.92
  C 975.04 142.07 972.31 152.91 972.28 165.35
  Q 972.22 187.74 972.26 209.83
  A 1.47 1.47 0.0 0 1 970.77 211.30
  L 945.96 210.93
  A 0.72 0.72 0.0 0 1 945.25 210.21
  L 945.25 115.88
  A 1.37 1.37 0.0 0 1 946.62 114.51
  L 969.16 114.56
  A 1.84 1.83 0.5 0 1 970.99 116.41
  L 970.91 128.18
  A 0.55 0.55 0.0 0 0 971.88 128.54
  Z"
/>
<path fill="#000000" d="
  M 771.63 175.57
  L 791.04 115.04
  A 0.78 0.78 0.0 0 1 791.78 114.50
  L 817.75 114.53
  A 0.78 0.78 0.0 0 1 818.48 115.56
  L 785.50 210.73
  A 0.78 0.78 0.0 0 1 784.76 211.25
  L 760.89 211.25
  A 0.78 0.78 0.0 0 1 760.16 210.73
  L 738.61 149.16
  A 0.78 0.78 0.0 0 0 737.13 149.16
  L 715.63 210.71
  A 0.78 0.78 0.0 0 1 714.90 211.23
  L 690.73 211.26
  A 0.78 0.78 0.0 0 1 689.99 210.73
  L 657.41 115.57
  A 0.78 0.78 0.0 0 1 658.15 114.54
  L 684.25 114.56
  A 0.78 0.78 0.0 0 1 684.99 115.10
  L 704.07 175.59
  A 0.78 0.78 0.0 0 0 705.55 175.61
  L 727.31 115.08
  A 0.78 0.78 0.0 0 1 728.05 114.56
  L 747.53 114.56
  A 0.78 0.78 0.0 0 1 748.27 115.07
  L 770.15 175.60
  A 0.78 0.78 0.0 0 0 771.63 175.57
  Z"
/>
<rect fill="#000000" x="-13.60" y="-48.35" transform="translate(1031.90,162.90) rotate(0.1)" width="27.20" height="96.70" rx="1.67"/>
<path fill="#000000" d="
  M 1182.27 176.50
  L 1206.05 114.92
  A 0.74 0.74 0.0 0 1 1206.74 114.45
  L 1232.46 114.70
  A 0.74 0.74 0.0 0 1 1233.13 115.73
  L 1174.33 256.05
  A 0.74 0.74 0.0 0 1 1173.65 256.50
  L 1148.18 256.50
  A 0.74 0.74 0.0 0 1 1147.50 255.46
  L 1168.77 207.38
  A 0.74 0.74 0.0 0 0 1168.77 206.79
  L 1129.88 115.50
  A 0.74 0.74 0.0 0 1 1130.57 114.47
  L 1158.05 114.59
  A 0.74 0.74 0.0 0 1 1158.75 115.08
  L 1180.89 176.48
  A 0.74 0.74 0.0 0 0 1182.27 176.50
  Z"
/>
<rect fill="#f8b500" x="62.01" y="163.74" width="79.24" height="79.22" rx="1.34"/>
<rect fill="#f8b500" x="-39.41" y="-39.60" transform="translate(220.59,203.35) rotate(0.1)" width="78.82" height="79.20" rx="0.94"/>
<rect fill="#f8b500" x="299.75" y="163.75" width="79.00" height="79.22" rx="1.10"/>
<rect fill="#f8b500" x="62.01" y="282.50" width="79.24" height="79.00" rx="1.32"/>
<rect fill="#f8b500" x="-39.42" y="-39.50" transform="translate(220.57,322.00) rotate(0.1)" width="78.84" height="79.00" rx="0.89"/>
<path fill="#f8b500" d="
  M 506.74 329.44
  C 501.29 321.29 518.16 316.05 521.58 325.53
  Q 521.80 326.14 521.17 326.29
  L 518.20 327.03
  A 0.81 0.81 0.0 0 1 517.28 326.59
  Q 515.59 322.96 511.81 324.33
  A 2.11 2.11 0.0 0 0 510.55 327.08
  Q 511.06 328.41 512.67 328.87
  Q 515.51 329.67 518.21 330.85
  C 528.98 335.53 514.84 349.55 505.45 338.30
  A 1.56 1.56 0.0 0 1 506.42 335.76
  L 508.65 335.44
  A 1.05 1.04 68.9 0 1 509.68 335.90
  C 511.26 338.31 514.95 340.40 516.83 337.42
  A 2.24 2.24 0.0 0 0 515.68 334.11
  C 512.50 332.99 508.61 332.25 506.74 329.44
  Z"
/>
<path fill="#f8b500" d="
  M 700.33 331.50
  A 11.02 11.02 0.0 0 1 689.31 342.52
  A 11.02 11.02 0.0 0 1 678.29 331.50
  A 11.02 11.02 0.0 0 1 689.31 320.48
  A 11.02 11.02 0.0 0 1 700.33 331.50
  Z
  M 689.4519 338.4076
  A 6.95 6.56 88.5 0 0 695.8278 331.2883
  A 6.95 6.56 88.5 0 0 689.0881 324.5124
  A 6.95 6.56 88.5 0 0 682.7122 331.6317
  A 6.95 6.56 88.5 0 0 689.4519 338.4076
  Z"
/>
<path fill="#f8b500" d="
  M 836.72 340.47
  C 828.80 345.33 818.50 340.75 819.29 330.72
  C 820.16 319.82 833.21 316.98 839.40 325.29
  A 1.48 1.48 0.0 0 1 839.02 327.41
  Q 836.15 329.26 834.68 326.40
  A 1.27 1.25 -89.4 0 0 834.20 325.90
  Q 827.65 322.15 824.39 327.91
  C 820.27 335.20 829.88 342.82 835.62 335.12
  Q 835.87 334.79 836.28 334.75
  Q 838.23 334.56 839.50 335.96
  A 0.93 0.93 0.0 0 1 839.68 336.91
  Q 838.79 339.20 836.72 340.47
  Z"
/>
<path fill="#f8b500" d="
  M 881.77 331.49
  A 11.00 11.00 0.0 0 1 870.77 342.49
  A 11.00 11.00 0.0 0 1 859.77 331.49
  A 11.00 11.00 0.0 0 1 870.77 320.49
  A 11.00 11.00 0.0 0 1 881.77 331.49
  Z
  M 871.0511 338.4062
  A 6.97 6.46 88.1 0 0 877.2764 331.2258
  A 6.97 6.46 88.1 0 0 870.5889 324.4738
  A 6.97 6.46 88.1 0 0 864.3636 331.6542
  A 6.97 6.46 88.1 0 0 871.0511 338.4062
  Z"
/>
<path fill="#f8b500" d="
  M 1062.45 327.20
  L 1067.12 321.13
  A 0.97 0.97 0.0 0 1 1067.88 320.76
  L 1071.28 320.76
  A 0.72 0.72 0.0 0 1 1071.85 321.93
  L 1065.17 330.34
  A 1.16 1.16 0.0 0 0 1065.15 331.76
  L 1072.07 340.98
  Q 1072.65 341.75 1071.73 342.05
  C 1066.50 343.77 1065.49 339.23 1063.03 336.12
  Q 1061.87 334.65 1060.83 336.20
  L 1057.01 341.84
  A 0.93 0.91 16.3 0 1 1056.24 342.25
  L 1052.22 342.25
  A 0.65 0.65 0.0 0 1 1051.71 341.20
  L 1058.79 331.97
  A 1.45 1.44 -46.1 0 0 1058.76 330.18
  L 1051.92 321.80
  Q 1051.46 321.23 1052.13 320.94
  C 1056.87 318.88 1059.07 324.44 1061.62 327.23
  Q 1062.06 327.71 1062.45 327.20
  Z"
/>
<path fill="#f8b500" d="
  M 447.57 332.58
  A 0.77 0.76 -64.1 0 0 446.16 333.07
  C 446.43 335.50 446.35 337.95 446.56 340.40
  Q 446.70 342.05 444.52 342.41
  A 2.16 2.16 0.0 0 1 442.00 340.28
  L 442.00 321.74
  A 0.96 0.96 0.0 0 1 442.92 320.78
  C 446.29 320.63 453.46 320.10 455.54 323.46
  C 457.56 326.73 456.62 330.51 453.15 332.40
  A 0.87 0.87 0.0 0 0 452.85 333.65
  L 457.92 341.11
  A 0.65 0.65 0.0 0 1 457.53 342.11
  Q 455.33 342.62 453.33 341.70
  A 0.75 0.75 0.0 0 1 452.99 341.39
  L 447.57 332.58
  Z
  M 446.51 325.46
  L 446.49 328.52
  A 1.24 1.24 0.0 0 0 447.73 329.76
  L 447.98 329.76
  A 4.51 2.65 0.2 0 0 452.50 327.13
  L 452.50 326.89
  A 4.51 2.65 0.2 0 0 448.00 324.22
  L 447.75 324.22
  A 1.24 1.24 0.0 0 0 446.51 325.46
  Z"
/>
<rect fill="#f8b500" x="-2.23" y="-10.73" transform="translate(481.52,331.46) rotate(-0.2)" width="4.46" height="21.46" rx="1.19"/>
<path fill="#f8b500" d="
  M 544.82 342.25
  A 1.25 1.24 -0.0 0 1 543.57 341.01
  L 543.59 321.45
  A 0.71 0.70 -0.0 0 1 544.30 320.75
  L 555.34 320.75
  Q 555.99 320.75 555.99 321.40
  L 555.99 323.81
  A 0.93 0.93 0.0 0 1 555.06 324.74
  L 548.64 324.75
  Q 548.03 324.76 547.99 325.36
  L 547.80 328.88
  A 0.58 0.58 0.0 0 0 548.38 329.50
  L 553.95 329.50
  Q 554.74 329.50 555.02 330.23
  C 556.74 334.79 550.67 333.42 548.48 333.54
  Q 548.00 333.57 548.00 334.05
  L 548.00 337.09
  A 1.11 1.11 0.0 0 0 549.09 338.20
  L 555.31 338.35
  Q 556.06 338.36 556.02 339.12
  L 555.90 341.58
  A 0.71 0.70 1.3 0 1 555.19 342.25
  L 544.82 342.25
  Z"
/>
<path fill="#f8b500" d="
  M 615.69 337.90
  L 607.91 337.52
  A 0.90 0.89 -79.8 0 0 607.02 338.14
  L 605.96 341.54
  A 0.75 0.74 -83.3 0 1 605.29 342.07
  L 602.30 342.29
  A 0.83 0.83 0.0 0 1 601.46 341.17
  L 608.65 321.66
  Q 608.80 321.26 609.20 321.09
  C 612.97 319.54 614.47 321.16 615.68 324.57
  Q 618.61 332.81 621.71 340.82
  A 1.02 1.01 74.5 0 1 620.94 342.19
  Q 616.89 342.89 616.56 338.74
  A 0.92 0.92 0.0 0 0 615.69 337.90
  Z
  M 608.58 333.61
  A 0.47 0.47 0.0 0 0 609.04 334.23
  L 614.35 334.08
  A 0.47 0.47 0.0 0 0 614.77 333.44
  L 611.92 326.32
  A 0.47 0.47 0.0 0 0 611.03 326.35
  L 608.58 333.61
  Z"
/>
<path fill="#f8b500" d="
  M 644.12 342.18
  A 1.44 1.42 2.4 0 1 642.80 340.76
  L 642.73 321.52
  Q 642.73 320.91 643.33 320.86
  C 649.17 320.39 657.46 319.92 656.74 327.94
  A 1.61 1.55 -25.5 0 1 656.45 328.71
  L 655.08 330.59
  Q 654.71 331.10 655.28 331.35
  Q 658.82 332.90 658.26 336.78
  C 657.32 343.42 648.89 342.55 644.12 342.18
  Z
  M 647.08 325.51
  L 647.08 328.47
  A 1.03 1.03 0.0 0 0 648.11 329.50
  L 649.38 329.50
  A 3.34 2.32 -0.1 0 0 652.72 327.18
  L 652.72 326.80
  A 3.34 2.32 -0.1 0 0 649.38 324.48
  L 648.11 324.48
  A 1.03 1.03 0.0 0 0 647.08 325.51
  Z
  M 653.7919 334.7440
  A 1.95 1.95 0.0 0 0 651.8215 332.8145
  L 648.8417 332.8458
  A 1.95 1.95 0.0 0 0 646.9122 334.8161
  L 646.9281 336.3360
  A 1.95 1.95 0.0 0 0 648.8985 338.2655
  L 651.8783 338.2342
  A 1.95 1.95 0.0 0 0 653.8078 336.2639
  L 653.7919 334.7440
  Z"
/>
<path fill="#f8b500" d="
  M 727.84 342.00
  Q 727.15 341.79 726.90 341.11
  L 719.74 321.71
  Q 719.53 321.13 720.11 320.93
  C 723.40 319.80 724.37 321.07 725.24 324.03
  Q 727.05 330.15 729.40 335.94
  A 0.47 0.47 0.0 0 0 730.28 335.91
  L 735.12 321.32
  A 0.80 0.80 0.0 0 1 735.88 320.77
  L 738.71 320.74
  A 0.96 0.96 0.0 0 1 739.62 322.04
  Q 736.22 331.10 733.07 339.74
  C 732.08 342.44 730.38 342.78 727.84 342.00
  Z"
/>
<path fill="#f8b500" d="
  M 766.00 338.23
  L 772.09 338.28
  A 1.02 1.02 0.0 0 1 772.95 338.78
  Q 773.76 340.17 773.11 341.71
  A 0.89 0.89 0.0 0 1 772.29 342.25
  L 762.25 342.25
  A 1.25 1.25 0.0 0 1 761.00 341.00
  L 761.00 321.50
  Q 761.00 320.75 761.75 320.75
  L 772.50 320.75
  Q 773.25 320.75 773.25 321.50
  L 773.25 323.89
  Q 773.25 324.53 772.61 324.56
  L 766.27 324.83
  Q 765.17 324.88 765.22 325.98
  L 765.35 328.94
  Q 765.37 329.50 765.93 329.50
  L 771.69 329.50
  A 0.71 0.71 0.0 0 1 772.40 330.17
  L 772.54 332.65
  Q 772.58 333.38 771.85 333.40
  L 765.91 333.55
  A 0.74 0.73 -3.3 0 0 765.19 334.35
  L 765.47 337.75
  Q 765.51 338.23 766.00 338.23
  Z"
/>
<path fill="#f8b500" d="
  M 909.13 327.75
  A 0.57 0.56 -51.2 0 0 908.03 327.87
  L 906.76 341.77
  Q 906.72 342.25 906.23 342.25
  L 903.23 342.25
  A 0.77 0.76 -87.3 0 1 902.47 341.41
  L 904.29 321.34
  Q 904.34 320.70 904.98 320.72
  L 909.74 320.86
  A 1.04 1.04 0.0 0 1 910.69 321.55
  L 914.63 333.03
  A 0.57 0.57 0.0 0 0 915.72 333.02
  L 919.32 321.78
  A 0.87 0.82 -2.7 0 1 919.84 321.24
  Q 922.46 320.28 925.25 320.94
  A 1.25 1.24 -85.6 0 1 926.20 322.06
  L 927.69 341.32
  A 0.73 0.73 0.0 0 1 927.00 342.11
  L 924.16 342.25
  A 0.90 0.89 -3.2 0 1 923.21 341.41
  L 922.37 328.07
  Q 922.29 326.69 921.37 327.53
  Q 921.25 327.65 920.98 328.50
  Q 918.92 335.15 916.95 341.24
  A 1.84 1.84 0.0 0 1 913.44 341.23
  L 909.13 327.75
  Z"
/>
<path fill="#f8b500" d="
  M 950.61 342.25
  Q 950.01 342.27 950.01 341.67
  L 949.98 321.26
  Q 949.98 320.75 950.49 320.75
  C 954.19 320.75 959.30 320.11 962.29 321.82
  C 969.87 326.16 963.89 336.36 955.51 334.46
  A 1.09 1.09 0.0 0 0 954.18 335.58
  L 954.47 341.14
  A 0.96 0.95 -2.7 0 1 953.55 342.14
  L 950.61 342.25
  Z
  M 954.24 325.65
  L 954.24 329.85
  A 1.16 1.16 0.0 0 0 955.40 331.01
  L 957.24 331.01
  A 4.02 2.96 0.0 0 0 961.26 328.05
  L 961.26 327.45
  A 4.02 2.96 -0.0 0 0 957.24 324.49
  L 955.40 324.49
  A 1.16 1.16 0.0 0 0 954.24 325.65
  Z"
/>
<path fill="#f8b500" d="
  M 998.10 339.12
  L 998.19 341.30
  A 0.91 0.91 0.0 0 1 997.28 342.25
  L 987.95 342.25
  A 0.91 0.91 0.0 0 1 987.04 341.36
  L 986.69 321.68
  A 0.91 0.91 0.0 0 1 987.60 320.75
  L 990.34 320.75
  A 0.91 0.91 0.0 0 1 991.25 321.66
  L 991.25 337.34
  A 0.91 0.91 0.0 0 0 992.16 338.25
  L 997.19 338.25
  A 0.91 0.91 0.0 0 1 998.10 339.12
  Z"
/>
<path fill="#f8b500" d="
  M 1024.16 338.25
  L 1030.27 338.25
  A 0.90 0.90 0.0 0 1 1031.17 339.11
  L 1031.26 341.31
  A 0.90 0.90 0.0 0 1 1030.36 342.25
  L 1019.77 342.25
  A 0.90 0.90 0.0 0 1 1018.87 341.36
  L 1018.71 321.66
  A 0.90 0.90 0.0 0 1 1019.61 320.75
  L 1030.35 320.75
  A 0.90 0.90 0.0 0 1 1031.25 321.65
  L 1031.25 323.82
  A 0.90 0.90 0.0 0 1 1030.36 324.72
  L 1024.13 324.76
  A 0.90 0.90 0.0 0 0 1023.24 325.69
  L 1023.32 328.63
  A 0.90 0.90 0.0 0 0 1024.22 329.50
  L 1029.51 329.50
  A 0.90 0.90 0.0 0 1 1030.41 330.35
  L 1030.53 332.42
  A 0.90 0.90 0.0 0 1 1029.69 333.37
  L 1024.09 333.73
  A 0.90 0.90 0.0 0 0 1023.25 334.63
  L 1023.26 337.36
  A 0.90 0.90 0.0 0 0 1024.16 338.25
  Z"
/>
<rect fill="#f8b500" x="-2.28" y="-10.72" transform="translate(1095.78,331.49) rotate(0.2)" width="4.56" height="21.44" rx="1.10"/>
<path fill="#f8b500" d="
  M 1123.47 324.83
  L 1119.48 324.54
  Q 1118.73 324.48 1118.74 323.73
  L 1118.77 321.39
  A 0.65 0.64 0.0 0 1 1119.42 320.75
  L 1132.50 320.75
  A 1.01 1.00 72.4 0 1 1133.32 321.18
  Q 1134.25 322.52 1133.34 324.06
  Q 1133.09 324.48 1132.61 324.52
  L 1128.84 324.84
  A 0.64 0.63 -2.5 0 0 1128.25 325.47
  L 1128.25 341.46
  Q 1128.25 342.23 1127.48 342.24
  L 1124.91 342.26
  Q 1124.31 342.26 1124.31 341.66
  L 1124.12 325.53
  A 0.71 0.70 -88.2 0 0 1123.47 324.83
  Z"
/>
<path fill="#f8b500" d="
  M 1159.91 342.24
  A 1.10 1.09 88.5 0 1 1158.76 341.14
  L 1158.75 332.22
  A 1.33 1.31 -62.2 0 0 1158.53 331.49
  L 1152.38 322.02
  A 0.82 0.82 0.0 0 1 1153.07 320.75
  L 1156.02 320.75
  A 0.91 0.89 -15.3 0 1 1156.79 321.18
  L 1160.27 326.85
  A 0.94 0.94 0.0 0 0 1161.87 326.85
  C 1163.77 323.80 1164.45 319.92 1169.04 320.87
  A 1.00 1.00 0.0 0 1 1169.62 322.47
  Q 1166.62 326.23 1164.22 330.61
  C 1162.58 333.60 1163.28 337.97 1163.23 341.31
  Q 1163.22 342.08 1162.45 342.12
  L 1159.91 342.24
  Z"
/>
</svg>
