<svg xmlns="http://www.w3.org/2000/svg" width="362.434" height="420.666" viewBox="0 0 362.434 420.666">
  <g id="Groupe_18136" data-name="Groupe 18136" transform="translate(0 -0.001)">
    <path id="Tracé_48646" data-name="Tracé 48646" d="M180.782,0l31.289,95.606L362.434,104.3Z" fill="#a6abff"/>
    <path id="Tracé_48647" data-name="Tracé 48647" d="M180.782,0,0,104.3l212.071-8.691Z" fill="#7980ff"/>
    <path id="Tracé_48648" data-name="Tracé 48648" d="M0,104.3l129.5,40.849,82.569-49.54Z" fill="#8288ff"/>
    <path id="Tracé_48649" data-name="Tracé 48649" d="M223.37,268.566l-11.3-172.96L129.5,145.147" fill="#6e74df"/>
    <path id="Tracé_48650" data-name="Tracé 48650" d="M223.37,271.174,362.433,104.3,212.071,95.607Z" fill="#6369cc"/>
    <path id="Tracé_48651" data-name="Tracé 48651" d="M133.849,317.239,129.5,145.147,0,104.3Z" fill="#363a85"/>
    <path id="Tracé_48652" data-name="Tracé 48652" d="M133.848,317.239l91.26-46.065L129.5,145.148" fill="#2b2f80"/>
    <path id="Tracé_48653" data-name="Tracé 48653" d="M223.37,271.174l139.063,46.064V104.3Z" fill="#4d51a9"/>
    <path id="Tracé_48654" data-name="Tracé 48654" d="M.869,318.977l180.782,101.69-47.8-103.428Z" fill="#00003c"/>
    <path id="Tracé_48655" data-name="Tracé 48655" d="M181.652,420.667,362.434,317.239l-139.347-48.38Z" fill="#363a85"/>
    <path id="Tracé_48656" data-name="Tracé 48656" d="M133.849,317.239l47.8,103.428,41.718-152.1Z" fill="#161760"/>
    <path id="Tracé_48657" data-name="Tracé 48657" d="M.869,318.977l132.979-1.738L0,104.3Z" fill="#00003c"/>
  </g>
</svg>
