<?xml version="1.0" encoding="iso-8859-1"?>
<!-- Uploaded to: SVG Repo, www.svgrepo.com, Generator: SVG Repo Mixer Tools -->
<svg height="800px" width="800px" version="1.1" id="Layer_1" xmlns="http://www.w3.org/2000/svg" xmlns:xlink="http://www.w3.org/1999/xlink" 
	 viewBox="0 0 496.158 496.158" xml:space="preserve">
<path style="fill:#D8DBBA;" d="M248.082,0.003C111.07,0.003,0,111.063,0,248.085c0,137.001,111.07,248.07,248.082,248.07
	c137.006,0,248.076-111.069,248.076-248.07C496.158,111.062,385.088,0.003,248.082,0.003z"/>
<path style="fill:#CE7E42;" d="M255.596,158.99c-56.428,0-102.174,96.939-102.174,171.476c0,74.534,45.746,98.427,102.174,98.427
	c56.424,0,102.172-23.893,102.172-98.427C357.767,255.93,312.019,158.99,255.596,158.99z"/>
<path style="fill:#D88845;" d="M221.791,92.24c-9.413-19.02-37.002-24.564-61.612-12.378
	c-24.617,12.179-36.936,37.474-27.526,56.493c9.414,19.021,37.003,24.563,61.613,12.379
	C218.876,136.554,231.201,111.26,221.791,92.24z"/>
<path style="fill:#ED9B5F;" d="M210.164,97.996c-6.96-14.057-27.349-18.156-45.54-9.148c-18.189,9.002-27.298,27.694-20.343,41.752
	c6.959,14.056,27.35,18.155,45.535,9.15C208.01,130.744,217.115,112.051,210.164,97.996z"/>
<path style="fill:#D88845;" d="M350.959,79.862c-24.611-12.187-52.199-6.642-61.612,12.378c-9.411,19.02,2.914,44.313,27.526,56.494
	c24.609,12.185,52.199,6.643,61.611-12.379C387.894,117.336,375.574,92.041,350.959,79.862z"/>
<path style="fill:#ED9B5F;" d="M345.994,89.892c-17.443-8.638-36.993-4.708-43.665,8.771c-6.671,13.479,2.063,31.409,19.509,40.042
	c17.438,8.638,36.994,4.706,43.668-8.772C372.18,116.452,363.439,98.522,345.994,89.892z"/>
<ellipse style="fill:#D88845;" cx="255.599" cy="174.469" rx="113.41" ry="87.63"/>
<g>
	<path style="fill:#BF6C2E;" d="M210.348,142.971c-6.883,0-12.461,5.096-12.461,11.383c0,6.288,5.578,11.383,12.461,11.383
		c6.876,0,12.459-5.095,12.459-11.383S217.224,142.971,210.348,142.971z"/>
	<path style="fill:#BF6C2E;" d="M299.697,142.971c-6.877,0-12.459,5.096-12.459,11.383c0,6.288,5.582,11.383,12.459,11.383
		c6.881,0,12.459-5.095,12.459-11.383C312.156,148.066,306.578,142.971,299.697,142.971z"/>
</g>
<g>
	<path style="fill:#BA6E3A;" d="M255.596,89.589c-1.067,0-1.932,0.865-1.932,1.933v15.668c0,1.067,0.864,1.932,1.932,1.932
		s1.932-0.864,1.932-1.932V91.521C257.527,90.454,256.663,89.589,255.596,89.589z"/>
	<path style="fill:#BA6E3A;" d="M255.596,311.866c-1.067,0-1.932,0.865-1.932,1.933v28.997c0,1.067,0.864,1.932,1.932,1.932
		s1.932-0.864,1.932-1.932v-28.997C257.527,312.731,256.663,311.866,255.596,311.866z M255.596,358.987
		c-1.067,0-1.932,0.865-1.932,1.933v29c0,1.066,0.864,1.931,1.932,1.931s1.932-0.864,1.932-1.931v-29
		C257.527,359.852,256.663,358.987,255.596,358.987z M255.596,264.745c-1.067,0-1.932,0.865-1.932,1.933v28.997
		c0,1.067,0.864,1.933,1.932,1.933s1.932-0.865,1.932-1.933v-28.997C257.527,265.61,256.663,264.745,255.596,264.745z
		 M255.596,123.381c-1.067,0-1.932,0.864-1.932,1.933v28.997c0,1.067,0.864,1.932,1.932,1.932s1.932-0.864,1.932-1.932v-28.997
		C257.527,124.245,256.663,123.381,255.596,123.381z M255.596,217.625c-1.067,0-1.932,0.864-1.932,1.932v28.996
		c0,1.068,0.864,1.934,1.932,1.934s1.932-0.865,1.932-1.934v-28.996C257.527,218.489,256.663,217.625,255.596,217.625z
		 M255.596,170.503c-1.067,0-1.932,0.865-1.932,1.931v28.998c0,1.066,0.864,1.932,1.932,1.932s1.932-0.865,1.932-1.932v-28.998
		C257.527,171.368,256.663,170.503,255.596,170.503z"/>
	<path style="fill:#BA6E3A;" d="M255.596,406.11c-1.067,0-1.932,0.864-1.932,1.931v15.669c0,1.067,0.864,1.932,1.932,1.932
		s1.932-0.864,1.932-1.932v-15.669C257.527,406.975,256.663,406.11,255.596,406.11z"/>
</g>
<path style="fill:#ED9B5F;" d="M254.781,160.121c-34.637,0-62.716,21.697-62.716,48.464c0,26.763,28.079,48.463,62.716,48.463
	c34.638,0,62.715-21.7,62.715-48.463C317.496,181.818,289.419,160.121,254.781,160.121z"/>
<g>
	<path style="fill:#BF6C2E;" d="M255.596,170.02c-14.238,0-25.773,4.906-25.773,15.906c0,10.999,25.773,23.927,25.773,23.927
		s25.773-12.928,25.773-23.927C281.369,174.927,269.834,170.02,255.596,170.02z"/>
	<path style="fill:#BF6C2E;" d="M288.069,220.046c-1.421-1.255-3.595-1.122-4.852,0.297c-0.561,0.634-2.634,2.586-4.727,3.205
		c-2.034,0.602-9.554,1.138-14.532-2.577c-3.313-2.476-4.996-6.552-4.996-12.12c0-1.896-1.537-3.437-3.436-3.437
		s-3.438,1.54-3.438,3.437c0,9.784,4.22,14.985,7.76,17.628c4.518,3.373,10.168,4.373,14.617,4.373c2.52,0,4.654-0.321,5.98-0.713
		c4.326-1.283,7.563-4.841,7.92-5.241C289.623,223.475,289.491,221.305,288.069,220.046z"/>
	<path style="fill:#BF6C2E;" d="M255.68,205.414c-1.898,0-3.436,1.54-3.436,3.437c0,5.568-1.684,9.645-4.997,12.12
		c-4.976,3.715-12.501,3.179-14.532,2.577c-2.063-0.611-4.117-2.527-4.734-3.214c-1.256-1.41-3.428-1.54-4.842-0.288
		c-1.423,1.259-1.555,3.429-0.298,4.852c0.354,0.4,3.593,3.958,7.92,5.241c1.324,0.392,3.46,0.713,5.979,0.713
		c4.449,0,10.102-1,14.617-4.373c3.539-2.643,7.76-7.844,7.76-17.628C259.117,206.954,257.578,205.414,255.68,205.414z"/>
</g>
<g>
	<path style="fill:#D88845;" d="M174.737,235.723c-4.032,1.35-46.377,15.976-56.568,38.825c-3.415,3.94-6.101,8.733-7.642,14.187
		c-5.205,18.412,4.268,37.213,21.174,41.995c16.904,4.781,34.832-6.271,40.037-24.682c0.57-2.007,0.932-4.02,1.16-6.021
		c0.327,0.008,0.543,0.012,0.543,0.012S172.584,239.669,174.737,235.723z"/>
	<path style="fill:#D88845;" d="M401.269,288.984c-1.508-5.467-4.154-10.275-7.545-14.241
		c-10.029-22.921-52.269-37.849-56.293-39.224c2.129,3.96,0.844,64.32,0.844,64.32s0.214-0.003,0.542-0.003
		c0.213,1.996,0.562,4.012,1.116,6.027c5.076,18.446,22.922,29.623,39.859,24.965C396.732,326.167,406.346,307.434,401.269,288.984z
		"/>
	<path style="fill:#D88845;" d="M237.903,381.671c-6.165-29.565-39.641-59.586-67.741-53.718
		c-28.096,5.852-40.17,45.383-34.001,74.943c6.166,29.564,28.233,37.973,56.329,32.116
		C220.592,429.153,244.071,411.239,237.903,381.671z"/>
</g>
<path style="fill:#ED9B5F;" d="M226.328,381.482c-4.831-23.142-31.025-46.642-53.025-42.047
	c-21.986,4.578-31.436,35.518-26.612,58.66c4.827,23.139,22.103,29.719,44.091,25.136
	C212.777,418.642,231.156,404.622,226.328,381.482z"/>
<path style="fill:#D88845;" d="M340.416,327.953c-28.098-5.868-61.574,24.152-67.74,53.718
	c-6.168,29.568,17.313,47.482,45.413,53.342c28.097,5.856,50.165-2.552,56.329-32.116
	C380.586,373.336,368.514,333.805,340.416,327.953z"/>
<path style="fill:#ED9B5F;" d="M337.275,339.435c-21.998-4.595-48.193,18.905-53.024,42.047
	c-4.827,23.14,13.552,37.159,35.548,41.749c21.988,4.583,39.262-1.997,44.088-25.136
	C368.712,374.953,359.264,344.014,337.275,339.435z"/>
</svg>